
<!-- Generator: Adobe Illustrator 23.0.4, SVG Export Plug-In . SVG Version: 6.00 Build 0)  -->
<svg version="1.1" id="图层_1" xmlns="http://www.w3.org/2000/svg" xmlns:xlink="http://www.w3.org/1999/xlink" x="0px" y="0px"
	 viewBox="0 0 60 60" style="enable-background:new 0 0 60 60;" xml:space="preserve">
<style type="text/css">
	.st0{fill-rule:evenodd;clip-rule:evenodd;}
</style>
<title>01_icon/search_phone</title>
<desc>Created with Sketch.</desc>
<path class="st0" d="M43,38.7l15.2,15.2c1.2,1.2,1.2,3.1,0,4.2c-1.2,1.2-3.1,1.2-4.2,0L38.7,43c-4.1,3.2-9.2,5-14.7,5
	C10.7,48,0,37.3,0,24S10.7,0,24,0s24,10.7,24,24C48,29.5,46.1,34.7,43,38.7z M24,42c9.9,0,18-8.1,18-18S33.9,6,24,6S6,14.1,6,24
	S14.1,42,24,42z"/>
<g>
	<path id="path-1_1_" class="st0" d="M43,38.7l15.2,15.2c1.2,1.2,1.2,3.1,0,4.2c-1.2,1.2-3.1,1.2-4.2,0L38.7,43
		c-4.1,3.2-9.2,5-14.7,5C10.7,48,0,37.3,0,24S10.7,0,24,0s24,10.7,24,24C48,29.5,46.1,34.7,43,38.7z M24,42c9.9,0,18-8.1,18-18
		S33.9,6,24,6S6,14.1,6,24S14.1,42,24,42z"/>
</g>
</svg>
